# xmcd
#
# Track frame offsets: 
#        150
#        21762
#        40692
#        68337
#        81135
#        101102
#        119180
#        132437
#        156267
#        172157
#        193602
#        211420
#        241345
#        258935
#        284525
#
# Disc length: 4016 seconds
#
# Revision: 2
# Processed by: cddbd v1.5.2PL0 Copyright (c) Steve Scherf et al.
# Submitted via: ExactAudioCopy v1.0b4
#
DISCID=da0fae0f
DTITLE=Various Artist - A Fifth of Good Whiskey Blues
DYEAR=1998
DGENRE=Blues
TTITLE0=Root Man - Root Man - Buddy Ray
TTITLE1=Harry Dial Band - Harry Dial Band - Born Under A Bad Sign
TTITLE2=Kenny Brown - Kenny Brown - Jumper On The Line
TTITLE3=Jimmy Birdsong - Jimmy Birdsong - I'll Be What You Want Me To 
TTITLE3=Be
TTITLE4=Dave Mac Kennnzie - Dave Mac Kennnzie - Rats In My Bedroom
TTITLE5=Gator Dogs - Gator Dogs - Samp Man
TTITLE6=Etta Britt - Etta Britt - Mama's Got Her Gun
TTITLE7=Dave Duncan - Dave Duncan - Tangled Up In Your Love
TTITLE8=Little Charles and The Sidewinders - Little Charles and The Sidewi
TTITLE8=nders - Young Girl
TTITLE9=Christine Kittrell - Christine Kittrell - Sittin' Here Drinkin
TTITLE9='
TTITLE10=Buddy Ray - Buddy Ray - Cab Driver
TTITLE11=Richard Waters And The Blues Boyz - Richard Waters And The Bl
TTITLE11=ues Boyz - Long Cold Lonely Winter
TTITLE12=Perry Welsh and The Mighty Johnsons - Perry Welsh and The Mighty 
TTITLE12=Johnsons - Sun Is Shining
TTITLE13=Scott Holt Band - Scott Holt Band - Let's Sraighten It Out
TTITLE14=Danny Rhodes And The Messengers - Danny Rhodes And The Messen
TTITLE14=gers - River Road
EXTD=YEAR: 1998 ID3G:   0
EXTT0=
EXTT1=
EXTT2=
EXTT3=
EXTT4=
EXTT5=
EXTT6=
EXTT7=
EXTT8=
EXTT9=
EXTT10=
EXTT11=
EXTT12=
EXTT13=
EXTT14=
PLAYORDER=
